<?xml version="1.0" encoding="UTF-8" standalone="no"?>
<!-- Created with Inkscape (http://www.inkscape.org/) -->

<svg
   width="105mm"
   height="62mm"
   viewBox="0 0 105 62"
   version="1.1"
   id="svg18148"
   inkscape:version="1.1.2 (0a00cf5339, 2022-02-04)"
   sodipodi:docname="LogoV2.svg"
   xmlns:inkscape="http://www.inkscape.org/namespaces/inkscape"
   xmlns:sodipodi="http://sodipodi.sourceforge.net/DTD/sodipodi-0.dtd"
   xmlns="http://www.w3.org/2000/svg"
   xmlns:svg="http://www.w3.org/2000/svg">
  <sodipodi:namedview
     id="namedview18150"
     pagecolor="#ffffff"
     bordercolor="#cccccc"
     borderopacity="1"
     inkscape:pageshadow="0"
     inkscape:pageopacity="1"
     inkscape:pagecheckerboard="0"
     inkscape:document-units="mm"
     showgrid="false"
     inkscape:zoom="0.65638516"
     inkscape:cx="144.7321"
     inkscape:cy="179.7725"
     inkscape:window-width="1366"
     inkscape:window-height="699"
     inkscape:window-x="0"
     inkscape:window-y="32"
     inkscape:window-maximized="1"
     inkscape:current-layer="layer1"
     width="209mm" />
  <defs
     id="defs18145" />
  <g
     inkscape:label="Capa 1"
     inkscape:groupmode="layer"
     id="layer1">
    <g
       id="g20128"
       transform="translate(-41.147317,-118.21427)"
       style="fill:#000000">
      <path
         style="fill:#000000;fill-opacity:1;stroke-width:0.261856"
         d="m 92.001484,179.62748 c -2.869579,-0.58722 -6.370006,-3.62299 -6.370006,-5.52443 0,-0.6048 -0.269271,-0.91739 -1.50567,-1.7479 -3.546623,-2.38232 -9.513216,-5.7992 -23.632473,-13.53359 -11.814297,-6.47175 -17.833189,-9.9573 -18.849408,-10.91573 -0.647583,-0.61076 -0.647943,-0.61381 -0.0821,-0.69495 0.312587,-0.0448 1.118865,0.10541 1.791731,0.33386 1.341835,0.45556 2.426244,0.35407 4.169056,-0.39018 1.277011,-0.54534 3.190028,-0.4011 10.614021,0.80024 22.221873,3.59591 27.832185,6.68442 32.224277,17.73963 1.49352,3.7593 2.070398,4.88533 2.356316,4.59942 0.276441,-0.27645 -0.410207,-3.31375 -1.562076,-6.90964 -1.839167,-5.74151 -5.107961,-9.25731 -10.791957,-11.60748 -2.9972,-1.23926 -6.038036,-2.00611 -13.656088,-3.44389 -6.178481,-1.16608 -9.367076,-1.8852 -8.570472,-1.93288 0.216031,-0.0129 2.436869,0.32986 4.935196,0.76177 2.498327,0.43191 4.689267,0.78529 4.868758,0.78529 0.219017,0 0.413285,-0.8164 0.590689,-2.48235 0.33766,-3.17084 1.306183,-5.24757 3.347799,-7.17844 2.04361,-1.93277 3.89566,-2.72211 6.708035,-2.85898 1.593593,-0.0775 2.68396,0.0162 3.731443,0.32066 0.813962,0.23663 1.479935,0.47912 1.479935,0.53888 0,0.0598 -0.229687,0.49834 -0.510415,0.97464 -1.047213,1.77677 -1.322575,3.69348 -1.322575,9.20607 0,4.66309 0.04879,5.25572 0.458247,5.56655 0.252037,0.19132 0.537132,0.3516 0.633545,0.35619 0.09641,0.005 0.214245,-2.73134 0.261855,-6.07982 0.08656,-6.08815 0.08656,-6.08815 0.920564,-7.84869 3.287831,-6.94044 12.091819,-8.59385 17.415079,-3.27058 0.77332,0.77331 1.6746,2.05409 2.14702,3.05104 0.8142,1.71823 0.8142,1.71823 0.89708,7.80637 0.0842,6.18604 0.13018,6.44314 1.04807,5.86113 0.2736,-0.17348 0.32802,-1.46535 0.26186,-6.21506 -0.0824,-5.91171 -0.0937,-6.01769 -0.80363,-7.53338 -0.39606,-0.84552 -0.7201,-1.57364 -0.7201,-1.61803 0,-0.27062 3.23037,-0.67871 4.40934,-0.55703 4.29936,0.44373 8.79736,5.30223 9.80175,10.58732 0.18306,0.96324 0.44471,1.63536 0.63663,1.63536 0.17921,0 2.41166,-0.35647 4.961,-0.79217 2.54935,-0.43569 4.76192,-0.74981 4.91683,-0.69805 0.39537,0.13211 -2.77966,0.82476 -8.75236,1.90937 -8.39073,1.52372 -11.98396,2.54763 -15.84227,4.51435 -4.755888,2.42426 -7.494765,6.23581 -9.249944,12.87269 -1.069673,4.04476 -1.191533,4.7134 -0.859026,4.7134 0.357876,0 0.721633,-0.73063 2.392814,-4.80618 3.492916,-8.51825 7.661316,-12.02203 17.527556,-14.73294 5.55577,-1.52653 19.89499,-4.02789 23.09019,-4.02789 0.75052,0 2.12347,0.25634 3.05099,0.56964 1.52467,0.51501 1.80268,0.53665 2.89887,0.22566 2.0798,-0.59003 2.67781,-0.64179 2.51507,-0.21768 -0.32599,0.84952 -6.12865,4.23591 -22.12013,12.90916 -24.239734,13.14682 -22.51958,12.14467 -22.51958,13.11983 0,0.92123 -0.89141,2.54775 -2.00851,3.66486 -1.77607,1.77606 -4.863128,2.69996 -7.332826,2.19456 z m -14.975347,-46.1633 c -1.321101,-0.50192 -2.917332,-1.9611 -3.465388,-3.16787 -1.062453,-2.33941 -0.416903,-5.57882 1.420512,-7.12822 2.476223,-2.08809 6.330151,-1.91425 8.493006,0.38308 2.708056,2.87643 1.901004,7.73054 -1.580603,9.50672 -1.299299,0.66285 -3.671127,0.86083 -4.867527,0.40629 z m 28.899153,-0.15486 c -3.87518,-1.79801 -4.73619,-6.69524 -1.70931,-9.72213 2.33381,-2.3338 5.78963,-2.4616 8.18424,-0.30264 3.16062,2.84957 2.61092,7.87323 -1.07132,9.79078 -1.70844,0.88968 -3.79563,0.98006 -5.40361,0.23399 z M 92.549747,130.0479 c -1.513243,-0.49465 -2.669818,-1.42259 -3.474272,-2.78748 -0.575975,-0.97723 -0.693334,-1.4912 -0.687602,-3.01134 0.0079,-2.09105 0.395172,-3.01025 1.873072,-4.44557 2.2993,-2.23305 6.280912,-2.09374 8.498887,0.29736 1.157776,1.24815 1.626248,2.44311 1.626248,4.14821 0,1.7051 -0.468472,2.90006 -1.626248,4.14821 -1.508713,1.62648 -4.142405,2.3265 -6.210085,1.65061 z"
         id="path20130" />
    </g>
  </g>
</svg>
